<svg xmlns="http://www.w3.org/2000/svg" version="1.1" width="8cm" height="8cm" viewBox="0 0 0.08 0.08">
<g fill="black"><g>
<rect x="0" y="0" width="0.01" height="0.01"/>
<rect x="0.01" y="0" width="0.01" height="0.01"/>
<rect x="0.02" y="0" width="0.01" height="0.01"/>
<rect x="0.03" y="0" width="0.01" height="0.01"/>
<rect x="0.04" y="0" width="0.01" height="0.01"/>
<rect x="0.05" y="0" width="0.01" height="0.01"/>
<rect x="0.06" y="0" width="0.01" height="0.01"/>
<rect x="0.07" y="0" width="0.01" height="0.01"/>
<rect x="0" y="0.01" width="0.01" height="0.01"/>
<rect x="0.03" y="0.01" width="0.01" height="0.01"/>
<rect x="0.05" y="0.01" width="0.01" height="0.01"/>
<rect x="0.07" y="0.01" width="0.01" height="0.01"/>
<rect x="0" y="0.02" width="0.01" height="0.01"/>
<rect x="0.01" y="0.02" width="0.01" height="0.01"/>
<rect x="0.05" y="0.02" width="0.01" height="0.01"/>
<rect x="0.07" y="0.02" width="0.01" height="0.01"/>
<rect x="0" y="0.03" width="0.01" height="0.01"/>
<rect x="0.01" y="0.03" width="0.01" height="0.01"/>
<rect x="0.04" y="0.03" width="0.01" height="0.01"/>
<rect x="0.05" y="0.03" width="0.01" height="0.01"/>
<rect x="0.06" y="0.03" width="0.01" height="0.01"/>
<rect x="0.07" y="0.03" width="0.01" height="0.01"/>
<rect x="0" y="0.04" width="0.01" height="0.01"/>
<rect x="0.02" y="0.04" width="0.01" height="0.01"/>
<rect x="0.04" y="0.04" width="0.01" height="0.01"/>
<rect x="0.05" y="0.04" width="0.01" height="0.01"/>
<rect x="0.06" y="0.04" width="0.01" height="0.01"/>
<rect x="0.07" y="0.04" width="0.01" height="0.01"/>
<rect x="0" y="0.05" width="0.01" height="0.01"/>
<rect x="0.01" y="0.05" width="0.01" height="0.01"/>
<rect x="0.03" y="0.05" width="0.01" height="0.01"/>
<rect x="0.06" y="0.05" width="0.01" height="0.01"/>
<rect x="0.07" y="0.05" width="0.01" height="0.01"/>
<rect x="0" y="0.06" width="0.01" height="0.01"/>
<rect x="0.01" y="0.06" width="0.01" height="0.01"/>
<rect x="0.02" y="0.06" width="0.01" height="0.01"/>
<rect x="0.03" y="0.06" width="0.01" height="0.01"/>
<rect x="0.05" y="0.06" width="0.01" height="0.01"/>
<rect x="0.06" y="0.06" width="0.01" height="0.01"/>
<rect x="0.07" y="0.06" width="0.01" height="0.01"/>
<rect x="0" y="0.07" width="0.01" height="0.01"/>
<rect x="0.01" y="0.07" width="0.01" height="0.01"/>
<rect x="0.02" y="0.07" width="0.01" height="0.01"/>
<rect x="0.03" y="0.07" width="0.01" height="0.01"/>
<rect x="0.04" y="0.07" width="0.01" height="0.01"/>
<rect x="0.05" y="0.07" width="0.01" height="0.01"/>
<rect x="0.06" y="0.07" width="0.01" height="0.01"/>
<rect x="0.07" y="0.07" width="0.01" height="0.01"/>
</g>
</g></svg>